<?xml version="1.0" encoding="UTF-8" standalone="no"?>
<svg
   xmlns:dc="http://purl.org/dc/elements/1.1/"
   xmlns:cc="http://creativecommons.org/ns#"
   xmlns:rdf="http://www.w3.org/1999/02/22-rdf-syntax-ns#"
   xmlns:svg="http://www.w3.org/2000/svg"
   xmlns="http://www.w3.org/2000/svg"
   viewBox="0 0 668.02667 278.77332"
   height="278.77332"
   width="668.02667"
   xml:space="preserve"
   id="svg2"
   version="1.1"><metadata
     id="metadata8"><rdf:RDF><cc:Work
         rdf:about=""><dc:format>image/svg+xml</dc:format><dc:type
           rdf:resource="http://purl.org/dc/dcmitype/StillImage" /></cc:Work></rdf:RDF></metadata><defs
     id="defs6" /><g
     transform="matrix(1.3333333,0,0,-1.3333333,0,278.77333)"
     id="g10"><g
       transform="scale(0.1)"
       id="g12"><path
         id="path14"
         style="fill:#ffffff;fill-opacity:1;fill-rule:nonzero;stroke:none"
         d="m 1870,398.809 h -190 v 110 c -72.03,-82.559 -133.09,-124.258 -199.65,-124.258 -58.4,0 -98.95,27.551 -119.26,77.32 -12.34,30.27 -21.09,77.52 -21.09,146.938 v 800.001 h 190 V 658.809 c 0,-42.418 0,-60 0,-70 4.43,-28.071 16.35,-38.321 40.51,-38.321 36.37,0 69.28,31.602 109.49,88.321 v 770.001 h 190 V 398.809" /><path
         id="path16"
         style="fill:#ffffff;fill-opacity:1;fill-rule:nonzero;stroke:none"
         d="m 1010,698.809 c 10,-100 -21.016,-149.618 -80.016,-149.618 -59,0 -89.984,49.618 -79.984,149.618 v 400.001 c -10,100 21,146.87 80,146.87 59,0 90.1,-46.87 80.1,-146.87 z m 190,380.001 c 0,107.93 -21.68,188.98 -60,240 -50.62,69.08 -130,97.36 -210,97.36 -90.551,0 -159.457,-28.28 -210,-97.36 -38.93,-51.02 -59.812,-132.95 -59.812,-240.88 L 660,718.809 C 660,611.48 678.574,537.32 717.504,486.801 768.047,417.93 850,381.441 930,381.441 c 80,0 163.39,36.489 214,105.36 38.32,50.519 56,124.679 56,232.008 v 360.001" /><path
         id="path18"
         style="fill:#ffffff;fill-opacity:1;fill-rule:nonzero;stroke:none"
         d="m 450,948.809 v -550 H 250 v 550 c 0,0 -207.2461,674.311 -250,800.001 H 210 L 350.348,1222.05 490,1748.81 H 700 L 450,948.809" /><path
         id="path20"
         style="fill:#ffffff;fill-opacity:1;fill-rule:nonzero;stroke:none"
         d="m 3824.22,1248.17 c -29.81,0 -63.95,-15.73 -94.22,-45.61 l -0.21,-606.458 c 30.28,-30.274 64.62,-45.614 94.43,-45.614 52.21,0 75.78,38.321 75.78,138.321 v 430.001 c 0,100 -23.57,129.36 -75.78,129.36" /><path
         id="path22"
         style="fill:#ffffff;fill-opacity:1;fill-rule:nonzero;stroke:none"
         d="m 4570,1127.97 c 0,92.43 -23.89,120.2 -83.91,120.2 -60.46,0 -86.09,-25.49 -86.09,-118.95 v -110.6 l 170,0.19 v 109.16" /><path
         id="path24"
         style="fill:#ffffff;fill-opacity:1;fill-rule:nonzero;stroke:none"
         d="m 4487.77,550.488 c 44.57,0 70.55,24.242 80.88,72.633 1.68,9.867 1.36,53.051 1.36,125.688 H 4760 v -28.34 c 0,-58.34 -4.8,-99.629 -6.43,-117.758 -6.11,-40.129 -20.33,-76.441 -42.34,-108.473 -50.08,-72.558 -124.37,-108.316 -218.96,-108.316 -94.71,0 -166.8,34.078 -219.14,102.359 -38.46,50 -63.13,124.34 -63.13,230.528 v 350.001 c 0,106.8 22.44,189.36 60.9,239.9 52.36,68.38 124.45,104.58 216.87,104.58 90.82,0 162.91,-36.2 213.66,-104.58 37.85,-50.54 58.88,-128.67 58.88,-235.47 l 0.04,-204.431 H 4400 V 689.23 c -0.62,-92.281 25.63,-138.742 87.77,-138.742 z M 4090,698.809 c 0,-92.418 -7.91,-157.637 -20,-200 -24.16,-74.297 -76.84,-112.887 -148.93,-112.887 -64.37,0 -130.33,38.726 -190.82,113.566 L 3730,398.809 H 3550 V 1738.81 h 180 l -0.21,-436.88 c 58.48,71.96 124.68,112.92 191.28,112.92 72.09,0 120.55,-41.64 144.71,-116.49 12.09,-40.19 24.22,-104.9 24.22,-199.55 z m -690,-300 h -190 v 110 c -72.03,-82.559 -133.09,-124.258 -199.65,-124.258 -58.4,0 -98.95,27.551 -119.26,77.32 -12.34,30.27 -21.09,77.52 -21.09,146.938 v 790.001 h 190 V 658.809 c 0,-42.418 0,-60 0,-70 4.43,-28.071 16.35,-38.321 40.51,-38.321 36.37,0 69.28,31.602 109.49,88.321 v 760.001 h 190 z m -720,0 H 2480 V 1548.81 h -210 v 189.79 l 630,0.21 v -190 H 2680 Z M 4980.41,1639.73 c 0,0 -29.18,204.85 -118.71,295.06 -113.54,118.39 -240.84,118.99 -299.2,125.91 -417.85,30.07 -1044.65,30.07 -1044.65,30.07 h -1.31 c 0,0 -626.81,0 -1044.66,-30.07 -58.38,-6.92 -185.63,-7.52 -299.2,-125.91 -89.54,-90.21 -118.68,-295.06 -118.68,-295.06 0,0 -29.86,-240.55 -29.86,-481.12 V 933.082 c 0,-240.543 29.86,-481.094 29.86,-481.094 0,0 29.14,-204.84 118.68,-295.058 C 2286.25,38.5117 2435.49,42.2813 2501.93,29.8789 2740.82,7.05078 3517.19,0 3517.19,0 c 0,0 627.46,0.941406 1045.31,30.9883 58.36,6.9414 185.66,7.5234 299.2,125.9417 89.53,90.218 118.71,295.058 118.71,295.058 0,0 29.82,240.551 29.82,481.094 v 225.528 c 0,240.57 -29.82,481.12 -29.82,481.12" /></g></g></svg>