<?xml version="1.0" encoding="utf-8"?>
<!-- Generator: Adobe Illustrator 21.0.0, SVG Export Plug-In . SVG Version: 6.00 Build 0)  -->
<svg version="1.1"
	 id="Layer_1" xmlns:cc="http://creativecommons.org/ns#" xmlns:dc="http://purl.org/dc/elements/1.1/" xmlns:rdf="http://www.w3.org/1999/02/22-rdf-syntax-ns#"
	 xmlns="http://www.w3.org/2000/svg" xmlns:xlink="http://www.w3.org/1999/xlink" x="0px" y="0px" viewBox="0 0 502 210.6"
	 style="enable-background:new 0 0 502 210.6;" xml:space="preserve">
<style type="text/css">
	.st0{fill:#CD201F;}
	.st1{fill:#FFFFFF;}
</style>
<g>
	<path class="st0" d="M498.3,45.7c0,0-2.9-20.4-11.8-29.4c-11.3-11.8-24-11.9-29.9-12.6c-41.7-3-104.3-3-104.3-3h-0.1
		c0,0-62.6,0-104.3,3c-5.8,0.7-18.5,0.8-29.9,12.6c-8.9,9-11.8,29.4-11.8,29.4s-3,24-3,48v22.5c0,24,3,48,3,48s2.9,20.4,11.8,29.4
		c11.3,11.8,26.2,11.4,32.9,12.7c23.8,2.3,101.3,3,101.3,3s62.6-0.1,104.3-3.1c5.8-0.7,18.5-0.8,29.9-12.6
		c8.9-9,11.8-29.4,11.8-29.4s3-24,3-48V93.7C501.3,69.7,498.3,45.7,498.3,45.7"/>
</g>
<g>
	<g transform="matrix(6.6666 0 0 -6.6666 373.24 337.7)">
		<path class="st1" d="M-27.8,25.2h-2.8v1.6c-1.1-1.2-2-1.9-3-1.9c-0.9,0-1.5,0.4-1.8,1.2c-0.2,0.5-0.3,1.2-0.3,2.2v12h2.8V29.1v-1
			c0.1-0.4,0.2-0.6,0.6-0.6c0.5,0,1,0.5,1.6,1.3v11.5h2.8C-27.8,40.3-27.8,25.2-27.8,25.2z"/>
	</g>
	<g transform="matrix(6.6666 0 0 -6.6666 201.59 277.82)">
		<path class="st1" d="M-14.9,20.7c0.1-1.5-0.3-2.2-1.2-2.2c-0.9,0-1.3,0.7-1.2,2.2v6c-0.2,1.5,0.3,2.2,1.2,2.2
			c0.9,0,1.3-0.7,1.2-2.2C-14.9,26.7-14.9,20.7-14.9,20.7z M-12.1,26.4c0,1.6-0.3,2.8-0.9,3.6c-0.8,1-1.9,1.5-3.1,1.5
			c-1.4,0-2.4-0.4-3.1-1.5c-0.6-0.8-0.9-2-0.9-3.6l0-5.4c0-1.6,0.3-2.7,0.9-3.5c0.8-1,2-1.6,3.2-1.6c1.2,0,2.4,0.5,3.2,1.6
			c0.6,0.8,0.8,1.9,0.8,3.5C-12.1,21-12.1,26.4-12.1,26.4z"/>
	</g>
	<g transform="matrix(6.6666 0 0 -6.6666 89.82 227.92)">
		<path class="st1" d="M-6.5,17V8.8h-3V17c0,0-3.1,10.1-3.7,12h3.1l2.1-7.9l2.1,7.9h3.1C-2.8,29-6.5,17-6.5,17z"/>
	</g>
</g>
<g>
	<g transform="matrix(6.6666 0 0 -6.6666 878.2 191.92)">
		<path class="st1" d="M-65.7,14.3c0,1.4,0.4,1.8,1.3,1.8c0.9,0,1.3-0.4,1.3-1.8v-1.6l-2.5,0C-65.7,12.6-65.7,14.3-65.7,14.3z
			 M-60.3,10.4l0,3.1c0,1.6-0.3,2.8-0.9,3.5c-0.8,1-1.8,1.6-3.2,1.6c-1.4,0-2.5-0.5-3.2-1.6c-0.6-0.8-0.9-2-0.9-3.6V8.1
			c0-1.6,0.4-2.7,0.9-3.5c0.8-1,1.9-1.5,3.3-1.5c1.4,0,2.5,0.5,3.3,1.6c0.3,0.5,0.5,1,0.6,1.6c0,0.3,0.1,0.9,0.1,1.8v0.4h-2.8
			c0-1.1,0-1.7,0-1.9c-0.2-0.7-0.5-1.1-1.2-1.1c-0.9,0-1.3,0.7-1.3,2.1v2.7C-65.7,10.4-60.3,10.4-60.3,10.4z"/>
	</g>
	<g transform="matrix(6.6666 0 0 -6.6666 778.4 279.82)">
		<path class="st1" d="M-58.2,20.9c0-1.5-0.4-2.1-1.1-2.1c-0.4,0-1,0.2-1.4,0.7l0,9.1c0.5,0.4,1,0.7,1.4,0.7c0.8,0,1.1-0.4,1.1-1.9
			C-58.2,27.3-58.2,20.9-58.2,20.9z M-57.9,31.8c-1,0-2-0.6-2.9-1.7l0,6.5h-2.7V16.5h2.7l0,1.5c0.9-1.1,1.9-1.7,2.9-1.7
			c1.1,0,1.9,0.6,2.2,1.7c0.2,0.6,0.3,1.6,0.3,3v6c0,1.4-0.2,2.4-0.4,3C-56.1,31.1-56.8,31.8-57.9,31.8"/>
	</g>
	<g transform="matrix(6.6666 0 0 -6.6666 678.61 337.7)">
		<path class="st1" d="M-50.7,25.2h-2.8v1.6c-1.1-1.2-2-1.9-3-1.9c-0.9,0-1.5,0.4-1.8,1.2c-0.2,0.5-0.3,1.2-0.3,2.2v11.8h2.8V29.1
			v-1c0.1-0.4,0.2-0.6,0.6-0.6c0.5,0,1,0.5,1.6,1.3v11.4h2.8C-50.7,40.2-50.7,25.2-50.7,25.2z"/>
	</g>
	<g transform="matrix(6.6666 0 0 -6.6666 534.9 337.7)">
		<path class="st1" d="M-39.9,25.2h-3v17.2h-3.1v2.8l9.4,0v-2.8h-3.3V25.2z"/>
	</g>
</g>
</svg>
